<?xml version="1.0" encoding="UTF-8"?> <svg xmlns="http://www.w3.org/2000/svg" xmlns:xlink="http://www.w3.org/1999/xlink" width="80px" height="46px" viewBox="0 0 80 46"><!-- Generator: Sketch 52.6 (67491) - http://www.bohemiancoding.com/sketch --><title>Group</title><desc>Created with Sketch.</desc><g id="David-Website" stroke="none" stroke-width="1" fill="none" fill-rule="evenodd"><g id="David-Portfolio" transform="translate(-200.000000, -17.000000)" fill="#000000"><g id="Group" transform="translate(200.000000, 17.000000)"><path d="M0,36.795783 L4.53932021,36.795783 L4.53932021,8.61066865 L0,8.61066865 L0,5.34193548 L17.8081023,5.34193548 C21.416298,5.34193548 24.4909777,6.14369221 27.0322338,7.7472297 C29.5734899,9.3507672 31.4745537,11.4579483 32.7354823,14.0688363 C33.9964108,16.6797243 34.6268657,19.4447571 34.6268657,22.3640176 C34.6268657,25.8177907 33.9964108,28.8809126 32.7354823,31.553475 C31.4745537,34.2260375 29.5928885,36.3126608 27.0904302,37.8134074 C24.5879719,39.3141541 21.5132922,40.0645161 17.8662988,40.0645161 L0,40.0645161 L0,36.795783 Z M17.2921716,36.8 C21.417435,36.8 24.4920594,35.4977566 26.5161373,32.8932307 C28.5402151,30.2887049 29.5522388,26.870316 29.5522388,22.6379615 C29.5522388,20.1962185 29.108876,17.9376401 28.2221372,15.8621585 C27.3353983,13.786677 25.9860334,12.1080039 24.1740018,10.8260888 C22.3619702,9.54417373 20.1258797,8.90322581 17.4656631,8.90322581 L9.25373134,8.90322581 L9.25373134,36.8 L17.2921716,36.8 Z" id="Combined-Shape"></path><polygon id="Path" points="45.3731343 40.0645161 45.3731343 36.795783 49.736455 36.795783 49.736455 8.61066865 45.3731343 8.61066865 45.3731343 5.34193548 58.6868565 5.34193548 58.6868565 8.61066865 54.3235358 8.61066865 54.3235358 20.4521171 71.1055385 20.4521171 71.1055385 8.61066865 66.6862778 8.61066865 66.6862778 5.34193548 80 5.34193548 80 8.61066865 75.6366793 8.61066865 75.6366793 36.795783 80 36.795783 80 40.0645161 66.6862778 40.0645161 66.6862778 36.795783 71.1055385 36.795783 71.1055385 23.9675471 54.3235358 23.9675471 54.3235358 36.795783 58.6868565 36.795783 58.6868565 40.0645161"></polygon><polygon id="Line-2" fill-rule="nonzero" points="38.7014925 0 40.7014925 0 40.7014925 45.7032258 38.7014925 45.7032258"></polygon></g></g></g></svg> 