<?xml version="1.0" encoding="UTF-8"?> <svg xmlns="http://www.w3.org/2000/svg" xmlns:xlink="http://www.w3.org/1999/xlink" width="500px" height="171px" viewBox="0 0 500 171" version="1.1"><!-- Generator: Sketch 52.6 (67491) - http://www.bohemiancoding.com/sketch --><title>ltvplus-logo</title><desc>Created with Sketch.</desc><defs><linearGradient x1="34.7814251%" y1="79.9816624%" x2="71.7828697%" y2="16.3085385%" id="linearGradient-1"><stop stop-color="#0F94FA" offset="0%"></stop><stop stop-color="#0E96FA" offset="2%"></stop><stop stop-color="#08B1F5" offset="25%"></stop><stop stop-color="#04C4F2" offset="49%"></stop><stop stop-color="#01CFF0" offset="74%"></stop><stop stop-color="#00D3EF" offset="100%"></stop></linearGradient><linearGradient x1="20.8335282%" y1="100.319034%" x2="84.8506723%" y2="-10.0065189%" id="linearGradient-2"><stop stop-color="#0F94FA" offset="0%"></stop><stop stop-color="#0E96FA" offset="2%"></stop><stop stop-color="#08B1F5" offset="25%"></stop><stop stop-color="#04C4F2" offset="49%"></stop><stop stop-color="#01CFF0" offset="74%"></stop><stop stop-color="#00D3EF" offset="100%"></stop></linearGradient></defs><g id="Symbols" stroke="none" stroke-width="1" fill="none" fill-rule="evenodd"><g id="Logo-main-Copy-3" transform="translate(-59.000000, -14.000000)"><g id="ltvplus-logo" transform="translate(59.000000, 14.000000)"><path d="M252.991453,94.9905 C249.990673,93.0448415 246.481684,92.030448 242.905983,92.07495 C239.316723,92.0193302 235.78781,93.0020713 232.74359,94.905 C229.713379,96.847966 227.292947,99.6070983 225.760684,102.86505 C222.43952,110.117888 222.43952,118.457812 225.760684,125.71065 C227.292163,128.969115 229.712768,131.728445 232.74359,133.6707 C235.796902,135.591509 239.342283,136.583613 242.948718,136.5264 C246.507292,136.570099 250.000012,135.565033 252.991453,133.6365 C256.002953,131.671856 258.418179,128.918658 259.974359,125.67645 C263.295516,118.46542 263.295516,110.16158 259.974359,102.95055 C258.418179,99.7083418 256.002953,96.9551445 252.991453,94.9905 Z" id="Path"></path><path d="M47.7435898,134.8506 L12.8803419,134.8506 L12.8803419,66.92085 C12.9000523,65.3561291 12.2573818,63.8560397 11.1111111,62.7912 C10.0021157,61.6804925 8.49227543,61.0640154 6.92307693,61.0812 C5.29111447,61.0233796 3.70769087,61.642121 2.54700855,62.7912 C1.43156991,63.8725409 0.812870829,65.367222 0.837606839,66.92085 L0.837606839,140.31405 C0.806832031,141.855415 1.39841124,143.344127 2.47863248,144.4437 C3.57020795,145.580343 5.09177112,146.201606 6.66666668,146.1537 L47.6923078,146.1537 C49.2439202,146.209882 50.7530075,145.639925 51.8803419,144.57195 C52.9706484,143.528301 53.567082,142.070878 53.5213674,140.562 C53.5818298,139.015402 52.9857398,137.515338 51.8803419,136.43235 C50.7651528,135.378013 49.2774674,134.809174 47.7435898,134.8506 Z" id="Path" fill="#0F94FA"></path><path d="M112.726496,61.08975 L57.1709401,61.08975 C55.6330416,61.0346582 54.1340826,61.5804824 52.9914531,62.61165 C51.8955898,63.6265191 51.2963953,65.0688348 51.3504273,66.56175 C51.2806525,68.0923757 51.8795748,69.5777243 52.9914531,70.63155 C54.1357565,71.6656041 55.6385267,72.2116994 57.1794873,72.15345 L78.7179488,72.15345 L78.7179488,140.3226 C78.6938854,141.886434 79.3337217,143.387159 80.4786326,144.45225 C83.0006935,146.721976 86.8283661,146.721976 89.3504273,144.45225 C90.4944388,143.386527 91.1340966,141.886222 91.1111112,140.3226 L91.1111112,72.1449 L112.735043,72.1449 C114.265342,72.2028392 115.761088,71.6806717 116.923077,70.68285 C118.02739,69.6565776 118.624438,68.1962697 118.555556,66.69 C118.624187,65.1595696 118.025449,63.6746787 116.91453,62.6202 C115.77108,61.5838358 114.268492,61.034739 112.726496,61.08975 Z" id="Path" fill="#0F94FA"></path><path d="M199.760684,62.5518 C198.616738,61.5106513 197.119006,60.9449833 195.57265,60.97005 C194.464815,60.963427 193.382765,61.3043028 192.478633,61.94475 C191.51448,62.6315398 190.740914,63.5524936 190.230769,64.6209 L165.205128,127.3266 L138.709402,64.74915 C137.569801,62.1556499 135.789174,60.8589 133.367521,60.8589 C131.887693,60.8648872 130.462591,61.4192878 129.367521,62.415 C128.164839,63.4432488 127.494932,64.9628667 127.547009,66.54465 C127.508308,67.4258783 127.675098,68.3040286 128.034188,69.10965 L158.974359,142.50285 C159.474876,143.558962 160.25158,144.460017 161.222222,145.1106 C162.108771,145.704523 163.132933,146.06075 164.196581,146.14515 C165.374434,146.148033 166.528372,145.81271 167.521367,145.179 C168.591454,144.510473 169.436888,143.536693 169.948718,142.38315 L200.923077,69.10965 C201.299173,68.2661533 201.505382,67.3567722 201.529915,66.4335 C201.545414,64.9410303 200.897193,63.5188311 199.760684,62.5518 Z" id="Path" fill="#0F94FA"></path><path d="M259.230769,85.57695 C254.75486,82.7772966 249.569064,81.3231033 244.290598,81.38745 C240.128988,81.3739606 236.032176,82.4183807 232.384616,84.4227 C229.010451,86.1426792 226.095032,88.6429032 223.880342,91.71585 L223.880342,88.19325 C223.932046,86.6051761 223.340268,85.0635492 222.239316,83.91825 C221.147741,82.7816074 219.626178,82.1603439 218.051282,82.20825 C216.492383,82.1521309 214.98598,82.7761189 213.923077,83.91825 C212.852951,85.0788258 212.284619,86.6153951 212.34188,88.19325 L212.34188,164.63025 C212.2887,166.193247 212.882406,167.708966 213.982906,168.81975 C215.054204,169.905522 216.526721,170.499687 218.051282,170.46135 C219.626178,170.509256 221.147741,169.887993 222.239316,168.75135 C223.318711,167.651239 223.910147,166.162889 223.880342,164.6217 L223.880342,137.655 C226.353611,140.502356 229.369696,142.827706 232.752137,144.495 C236.399924,146.359008 240.442402,147.317929 244.538461,147.29085 C249.749936,147.325377 254.858506,145.839809 259.239316,143.01585 C263.736498,140.131248 267.366918,136.079947 269.74359,131.2938 C272.36106,126.031345 273.674373,120.216141 273.57265,114.33915 C273.66898,108.443543 272.356202,102.610192 269.74359,97.32465 C267.388101,92.5147017 263.749996,88.4492501 259.230769,85.57695 Z M260.017094,125.67645 C258.449196,128.924071 256.018701,131.677822 252.991453,133.6365 C249.990673,135.582159 246.481684,136.596552 242.905983,136.55205 C239.299548,136.609263 235.754167,135.617159 232.700855,133.69635 C229.670033,131.754095 227.249428,128.994765 225.717949,125.7363 C222.396784,118.483462 222.396784,110.143538 225.717949,102.8907 C227.250212,99.6327483 229.670644,96.873616 232.700855,94.93065 C235.754569,93.0107487 239.299675,92.0187221 242.905983,92.07495 C246.481684,92.030448 249.990673,93.0448415 252.991453,94.9905 C256.002953,96.9551445 258.418179,99.7083418 259.974359,102.95055 C263.295516,110.16158 263.295516,118.46542 259.974359,125.67645 L260.017094,125.67645 Z" id="Shape" fill="#0F94FA" fill-rule="nonzero"></path><path d="M293.726496,56.23335 C292.178442,56.2264926 290.691811,56.8386365 289.597161,57.9336702 C288.502511,59.0287035 287.890581,60.5158541 287.897436,62.06445 L287.897436,140.3226 C287.867631,141.863789 288.459066,143.352139 289.538461,144.45225 C290.590647,145.573839 292.069608,146.195469 293.606838,146.16225 C295.154892,146.169107 296.641522,145.556963 297.736172,144.46193 C298.830823,143.366897 299.442752,141.879746 299.435898,140.33115 L299.435898,62.06445 C299.465702,60.5232606 298.874267,59.0349108 297.794872,57.9348 C296.739924,56.8181722 295.262007,56.2000871 293.726496,56.23335 Z" id="Path" fill="#0F94FA"></path><path d="M364.427351,82.4733 C362.890329,82.4411657 361.411789,83.0626176 360.358975,84.1833 C359.278755,85.2828726 358.687174,86.7715849 358.717947,88.31295 L358.717947,120.63195 C358.717947,125.89875 357.421652,129.8688 354.829059,132.5421 C352.236466,135.2154 348.470087,136.55205 343.529913,136.55205 C333.569801,136.55205 328.589742,131.24535 328.589742,120.63195 L328.589742,88.31295 C328.61955,86.7717606 328.028112,85.2834108 326.948717,84.1833 C325.857143,83.0466574 324.335581,82.4253939 322.760683,82.4733 C321.223661,82.4411657 319.745124,83.0626176 318.692307,84.1833 C317.612913,85.2834108 317.021478,86.7717606 317.051283,88.31295 L317.051283,120.63195 C317.051283,129.05655 319.358975,135.61155 323.97436,140.29695 C328.589742,144.98235 335.108261,147.3108 343.529913,147.2823 C352.031339,147.2823 358.612534,144.95385 363.273503,140.29695 C367.934472,135.64005 370.262109,129.08505 370.25641,120.63195 L370.25641,88.31295 C370.287186,86.7715849 369.695606,85.2828726 368.615385,84.1833 C367.523811,83.0466574 366.002245,82.4253939 364.427351,82.4733 Z" id="Path" fill="#0F94FA"></path><path d="M422,112.9797 C418.542953,111.471296 414.966534,110.253 411.307693,109.3374 C406.367522,108.0435 402.703705,106.70685 400.316239,105.32745 C397.998817,104.077905 396.568919,101.642273 396.606839,99.009 C396.606839,96.0108001 397.680913,93.8846999 399.829059,92.6307 C402.225801,91.3122076 404.932807,90.6625348 407.666668,90.7497 C410.477801,90.7156408 413.2665,91.2537949 415.863248,92.33145 C418.263646,93.3347757 420.403457,94.8729369 422.119658,96.82875 C423.022658,97.8086161 424.309804,98.3430324 425.641025,98.2908 C426.754823,98.3257627 427.840003,97.9343505 428.675214,97.1964 C429.825748,96.2704739 430.530643,94.9005727 430.615385,93.42585 C430.577876,92.1134337 430.060966,90.8602493 429.162394,89.90325 C426.685655,86.8703113 423.437994,84.5607132 419.760683,83.21715 C416.060354,81.7861679 412.129568,81.04436 408.162394,81.02835 C404.294627,80.9911152 400.463258,81.7780597 396.923078,83.33685 C393.663022,84.7364965 390.819196,86.9540428 388.666668,89.775 C386.598075,92.5430432 385.509503,95.9211989 385.572649,99.37665 C385.572649,103.50915 386.603988,106.8522 388.666668,109.4058 C390.694003,111.928721 393.29673,113.928363 396.25641,115.2369 C399.918391,116.803331 403.69605,118.083954 407.555556,119.0673 C411.228087,119.912021 414.765972,121.261491 418.068376,123.07725 C420.348922,124.348172 421.730351,126.78548 421.649571,129.3957 C421.649571,132.3939 420.475783,134.5599 418.128205,135.8937 C415.635522,137.270156 412.838618,138.001955 409.991453,138.02265 C406.528478,138.114373 403.091252,137.403276 399.948717,135.945 C396.955137,134.412843 394.292053,132.306615 392.111112,129.74625 C391.081438,128.614551 389.631981,127.95604 388.102565,127.9251 C387.10437,127.909907 386.126658,128.209006 385.307693,128.7801 C383.598292,129.9201 382.74359,131.29665 382.74359,132.90975 C382.782571,134.087069 383.162649,135.227698 383.837606,136.19295 C386.688168,139.963537 390.499059,142.898745 394.871795,144.69165 C399.368109,146.505445 404.177736,147.414829 409.02564,147.3678 C412.883012,147.388724 416.704242,146.623628 420.25641,145.11915 C423.610214,143.741868 426.553509,141.52479 428.803419,138.681 C431.001053,135.855384 432.159932,132.359419 432.085469,128.7801 C432.085469,124.6476 431.11396,121.30455 429.170941,118.75095 C427.298559,116.25965 424.833599,114.275822 422,112.9797 Z" id="Path" fill="#0F94FA"></path><path d="M494.871795,21.2895 C488.034189,8.9433 475.008547,1.41075 461.042736,0.855 C454.726497,0.60705 454.74359,10.42245 461.042736,10.6704 C470.474006,11.0932558 479.167065,15.8969157 484.546146,23.6580493 C489.925224,31.4191828 491.373388,41.247645 488.461537,50.23125 C482.25641,69.04125 458.871795,76.27455 442.820512,65.09115 C433.606839,58.6701 429.367522,47.82015 430.350429,36.87615 C430.914531,30.5919 421.102565,30.6261 420.538463,36.87615 C418.119658,63.67185 443.162394,85.45725 469.384615,79.3098 C494.615385,73.359 507.307693,43.8273 494.871795,21.2895 Z" id="Path" fill="url(#linearGradient-1)"></path><path d="M441.418804,45.06705 L455.555556,45.06705 L455.555556,59.20875 C455.555556,64.97145 464.51282,64.98 464.51282,59.20875 L464.51282,45.06705 L478.632478,45.06705 C484.393161,45.06705 484.401708,36.10665 478.632478,36.10665 L464.51282,36.10665 L464.51282,21.96495 C464.51282,16.20225 455.555556,16.1937 455.555556,21.96495 L455.555556,36.1152 L441.418804,36.1152 C435.658121,36.1152 435.649571,45.06705 441.418804,45.06705 Z" id="Path" fill="url(#linearGradient-2)"></path></g></g></g></svg> 