<?xml version="1.0" encoding="UTF-8"?> <svg xmlns="http://www.w3.org/2000/svg" xmlns:xlink="http://www.w3.org/1999/xlink" width="204px" height="40px" viewBox="0 0 204 40"><!-- Generator: Sketch 52.6 (67491) - http://www.bohemiancoding.com/sketch --><title>sl-logo</title><desc>Created with Sketch.</desc><g id="David-Website" stroke="none" stroke-width="1" fill="none" fill-rule="evenodd"><g id="David-Portfolio" transform="translate(-378.000000, -1020.000000)"><g id="sl-logo" transform="translate(378.000000, 1020.000000)"><path d="M0.101276596,35.2547516 C0.101276596,34.6336381 0.326976467,33.9866545 0.778382982,33.3137814 C1.22978949,32.6409084 1.75063534,32.3044769 2.34093617,32.3044769 C2.72289552,32.3044769 3.20033756,32.4942588 3.7732766,32.8738282 C4.34621563,33.2533976 5.10144212,33.6415877 6.03897872,34.0384103 C6.97651534,34.4352329 8.08765317,34.6336411 9.37242551,34.6336411 C11.9072467,34.6336411 13.1746383,33.8917666 13.1746383,32.4079953 C13.1746383,31.5798439 12.7492808,30.9242339 11.8985532,30.4411455 C11.0478255,29.9580572 10.0234953,29.5612406 8.82553194,29.2506838 C7.62756849,28.940127 6.42094224,28.5691897 5.20561702,28.1378609 C3.9902918,27.7065321 2.95728085,26.9819104 2.10655319,25.9639743 C1.25582553,24.9460381 0.830468088,23.6434445 0.830468088,22.0561543 C0.830468088,19.9512694 1.57701381,18.1397153 3.07012766,16.6214377 C4.56324151,15.1031601 6.92440939,14.3440327 10.1537021,14.3440327 C12.3065639,14.3440327 14.2250128,14.6718377 15.9091064,15.3274576 C17.5931999,15.9830775 18.4352341,16.7767107 18.4352341,17.7083811 C18.4352341,18.2949883 18.2008534,18.9764777 17.7320851,19.7528697 C17.2633168,20.5292616 16.6817056,20.9174518 15.9872341,20.9174518 C15.7094454,20.9174518 14.9542189,20.6672848 13.7215319,20.1669433 C12.4888449,19.6666018 11.3343033,19.4164349 10.2578723,19.4164349 C9.07727068,19.4164349 8.17447122,19.6579754 7.54944679,20.1410637 C6.92442243,20.6241521 6.61191489,21.1589918 6.61191489,21.7455991 C6.61191489,22.3322063 6.92442243,22.8152874 7.54944679,23.1948568 C8.17447122,23.5744262 8.94705922,23.8677255 9.86723406,24.0747633 C10.7874088,24.2818011 11.7856967,24.5664739 12.8621276,24.9287902 C13.9385586,25.2911064 14.9368465,25.7138024 15.8570213,26.1968907 C16.7771961,26.6799791 17.5497841,27.43048 18.1748085,28.4484161 C18.7998329,29.4663523 19.1123404,30.6999343 19.1123404,32.1491993 C19.1123404,34.4956283 18.2703063,36.3416882 16.5862128,37.6874343 C14.9021193,39.0331803 12.5496321,39.7060433 9.52868088,39.7060433 C6.92441253,39.7060433 4.70213686,39.2574679 2.86178723,38.3603039 C1.0214376,37.4631399 0.101276596,36.4279661 0.101276596,35.2547516 Z M24.5697021,37.118083 L24.5697021,2.38765634 C24.5697021,1.76654277 24.8735289,1.26620879 25.4811915,0.886639393 C26.0888541,0.50706999 26.8961652,0.317288135 27.903149,0.317288135 C28.8406855,0.317288135 29.6393158,0.50706999 30.2990638,0.886639393 C30.9588118,1.26620879 31.2886809,1.76654277 31.2886809,2.38765634 L31.2886809,18.2777323 C31.8095345,17.1735304 32.6428879,16.2418741 33.7887659,15.4827353 C34.934644,14.7235965 36.2888433,14.3440327 37.8514043,14.3440327 C40.2473312,14.3440327 42.3393953,15.3792065 44.1276596,17.4495851 C45.9159238,19.5199636 46.8100425,21.9871277 46.8100425,24.8511514 L46.8100425,37.118083 C46.8100425,37.7737029 46.4714928,38.2912897 45.794383,38.6708591 C45.1172732,39.0504285 44.3273237,39.2402104 43.4245106,39.2402104 C42.5564212,39.2402104 41.7838331,39.0504285 41.1067234,38.6708591 C40.4296137,38.2912897 40.0910638,37.7737029 40.0910638,37.118083 L40.0910638,24.8511514 C40.0910638,23.6779369 39.6396641,22.6082573 38.7368511,21.6420807 C37.834038,20.675904 36.7749848,20.1928229 35.5596596,20.1928229 C34.4137815,20.1928229 33.4154936,20.6241453 32.5647659,21.4868031 C31.7140383,22.3494608 31.2886809,23.470899 31.2886809,24.8511514 L31.2886809,37.118083 C31.2886809,37.6356776 30.950131,38.1187587 30.2730213,38.5673407 C29.5959115,39.0159227 28.8059619,39.2402104 27.903149,39.2402104 C26.9656123,39.2402104 26.1756628,39.0245492 25.5332766,38.5932203 C24.8908904,38.1618915 24.5697021,37.6701839 24.5697021,37.118083 Z M52.3194894,29.0954062 L52.3194894,24.8511514 C52.3194894,22.021634 53.4306272,19.5630963 55.6529361,17.4754647 C57.8752451,15.3878329 60.531559,14.3440327 63.6219574,14.3440327 C66.6429088,14.3440327 69.2818613,15.3792065 71.5388939,17.4495851 C73.7959265,19.5199636 74.9244257,21.9871277 74.9244257,24.8511514 L74.9244257,29.0954062 C74.9244257,31.8904173 73.7959265,34.3575813 71.5388939,36.4969725 C69.2818613,38.6363637 66.6429088,39.7060433 63.6219574,39.7060433 C60.6010062,39.7060433 57.9620538,38.6363637 55.7050213,36.4969725 C53.4479887,34.3575813 52.3194894,31.8904173 52.3194894,29.0954062 Z M59.0384681,29.0954062 C59.0384681,30.3376333 59.4898678,31.4418187 60.3926808,32.4079953 C61.2954939,33.374172 62.3719086,33.8572531 63.6219574,33.8572531 C64.8372827,33.8572531 65.9050167,33.374172 66.8251915,32.4079953 C67.7453661,31.4418187 68.205447,30.3376333 68.205447,29.0954062 L68.205447,24.8511514 C68.205447,23.6779369 67.7453661,22.6082573 66.8251915,21.6420807 C65.9050167,20.675904 64.8372827,20.1928229 63.6219574,20.1928229 C62.3719086,20.1928229 61.2954939,20.6672775 60.3926808,21.6162011 C59.4898678,22.5651245 59.0384681,23.6434305 59.0384681,24.8511514 L59.0384681,29.0954062 Z M80.6422126,37.118083 L80.6422126,16.7249561 C80.6422126,16.1038426 80.9460395,15.6035086 81.553702,15.2239392 C82.1613645,14.8443698 82.9513141,14.6545879 83.9235747,14.6545879 C84.7916636,14.6545879 85.5121675,14.8443698 86.0851065,15.2239392 C86.6580456,15.6035086 86.9445104,16.1038426 86.9445104,16.7249561 L86.9445104,18.8470836 C87.500088,17.6393627 88.3681642,16.5869361 89.5487657,15.6897721 C90.7293679,14.792608 91.996759,14.3440327 93.3509786,14.3440327 L94.9656172,14.3440327 C95.5906417,14.3440327 96.154891,14.6373319 96.6583831,15.2239392 C97.1618751,15.8105465 97.4136172,16.4834094 97.4136172,17.2425482 C97.4136172,18.0361933 97.1618751,18.7263091 96.6583831,19.3129164 C96.154891,19.8995237 95.5906417,20.1928229 94.9656172,20.1928229 L93.3509786,20.1928229 C91.753694,20.1928229 90.3560913,20.9001917 89.1581278,22.3149503 C87.9601642,23.729709 87.3611914,25.5757689 87.3611914,27.8531853 L87.3611914,37.118083 C87.3611914,37.6356776 87.0139607,38.1187587 86.3194892,38.5673407 C85.6250177,39.0159227 84.8263878,39.2402104 83.9235747,39.2402104 C82.9860375,39.2402104 82.204769,39.0245492 81.5797445,38.5932203 C80.9547206,38.1618915 80.6422126,37.6701839 80.6422126,37.118083 Z M101.673021,30.8552192 L101.673021,5.75200467 C101.673021,5.16539742 102.020252,4.67368989 102.714724,4.27686733 C103.409195,3.88004477 104.173102,3.68163647 105.006468,3.68163647 C105.909281,3.68163647 106.699231,3.88004477 107.37634,4.27686733 C108.053451,4.67368989 108.392,5.16539742 108.392,5.75200467 L108.392,14.6545879 L114.538043,14.6545879 C115.058896,14.6545879 115.475573,14.8961285 115.788085,15.3792168 C116.100597,15.8623051 116.256851,16.4316507 116.256851,17.0872706 C116.256851,17.7428905 116.100597,18.3122361 115.788085,18.7953244 C115.475573,19.2784127 115.058896,19.5199533 114.538043,19.5199533 L108.392,19.5199533 L108.392,30.8552192 C108.392,31.8559021 108.609019,32.5632709 109.043064,32.9773466 C109.477108,33.3914223 110.232335,33.5984571 111.308766,33.5984571 L113.340085,33.5984571 C114.242898,33.5984571 114.94604,33.8745034 115.449532,34.4266043 C115.953024,34.9787053 116.204766,35.6343153 116.204766,36.3934541 C116.204766,37.1870993 115.953024,37.8599622 115.449532,38.4120631 C114.94604,38.9641641 114.242898,39.2402104 113.340085,39.2402104 L111.308766,39.2402104 C104.884904,39.2402104 101.673021,36.4452413 101.673021,30.8552192 Z M121.714213,37.118083 L121.714213,2.38765634 C121.714213,1.76654277 122.01804,1.26620879 122.625702,0.886639393 C123.233365,0.50706999 124.040676,0.317288135 125.04766,0.317288135 C125.985196,0.317288135 126.783826,0.50706999 127.443574,0.886639393 C128.103322,1.26620879 128.433192,1.76654277 128.433192,2.38765634 L128.433192,37.118083 C128.433192,37.6356776 128.094642,38.1187587 127.417532,38.5673407 C126.740422,39.0159227 125.950473,39.2402104 125.04766,39.2402104 C124.110123,39.2402104 123.320173,39.0245492 122.677787,38.5932203 C122.035401,38.1618915 121.714213,37.6701839 121.714213,37.118083 Z M135.192681,5.90728229 C135.192681,5.01011825 135.548592,4.24236439 136.260426,3.60399766 C136.972259,2.96563094 137.849016,2.64645237 138.890723,2.64645237 C139.897707,2.64645237 140.757103,2.96563094 141.468936,3.60399766 C142.18077,4.24236439 142.536681,5.01011825 142.536681,5.90728229 C142.536681,6.76994 142.18077,7.52906747 141.468936,8.18468733 C140.757103,8.8403072 139.897707,9.1681122 138.890723,9.1681122 C137.849016,9.1681122 136.972259,8.8403072 136.260426,8.18468733 C135.548592,7.52906747 135.192681,6.76994 135.192681,5.90728229 Z M135.557276,37.118083 L135.557276,16.7249561 C135.557276,16.1038426 135.869784,15.6035086 136.494809,15.2239392 C137.119833,14.8443698 137.918463,14.6545879 138.890723,14.6545879 C139.862984,14.6545879 140.670295,14.8443698 141.312681,15.2239392 C141.955067,15.6035086 142.276255,16.1038426 142.276255,16.7249561 L142.276255,37.118083 C142.276255,37.6356776 141.937705,38.1187587 141.260596,38.5673407 C140.583486,39.0159227 139.793536,39.2402104 138.890723,39.2402104 C137.953187,39.2402104 137.163237,39.0245492 136.520851,38.5932203 C135.878465,38.1618915 135.557276,37.6701839 135.557276,37.118083 Z M147.525277,35.2547516 C147.525277,34.6336381 147.750976,33.9866545 148.202383,33.3137814 C148.653789,32.6409084 149.174635,32.3044769 149.764936,32.3044769 C150.146895,32.3044769 150.624338,32.4942588 151.197277,32.8738282 C151.770216,33.2533976 152.525442,33.6415877 153.462979,34.0384103 C154.400516,34.4352329 155.511653,34.6336411 156.796425,34.6336411 C159.331247,34.6336411 160.598638,33.8917666 160.598638,32.4079953 C160.598638,31.5798439 160.173281,30.9242339 159.322553,30.4411455 C158.471826,29.9580572 157.447496,29.5612406 156.249532,29.2506838 C155.051568,28.940127 153.844942,28.5691897 152.629617,28.1378609 C151.414292,27.7065321 150.381281,26.9819104 149.530553,25.9639743 C148.679826,24.9460381 148.254468,23.6434445 148.254468,22.0561543 C148.254468,19.9512694 149.001014,18.1397153 150.494128,16.6214377 C151.987242,15.1031601 154.348409,14.3440327 157.577702,14.3440327 C159.730564,14.3440327 161.649013,14.6718377 163.333106,15.3274576 C165.0172,15.9830775 165.859234,16.7767107 165.859234,17.7083811 C165.859234,18.2949883 165.624854,18.9764777 165.156085,19.7528697 C164.687317,20.5292616 164.105706,20.9174518 163.411234,20.9174518 C163.133445,20.9174518 162.378219,20.6672848 161.145532,20.1669433 C159.912845,19.6666018 158.758303,19.4164349 157.681872,19.4164349 C156.501271,19.4164349 155.598471,19.6579754 154.973447,20.1410637 C154.348423,20.6241521 154.035915,21.1589918 154.035915,21.7455991 C154.035915,22.3322063 154.348423,22.8152874 154.973447,23.1948568 C155.598471,23.5744262 156.371059,23.8677255 157.291234,24.0747633 C158.211409,24.2818011 159.209696,24.5664739 160.286128,24.9287902 C161.362559,25.2911064 162.360846,25.7138024 163.281021,26.1968907 C164.201196,26.6799791 164.973784,27.43048 165.598809,28.4484161 C166.223833,29.4663523 166.53634,30.6999343 166.53634,32.1491993 C166.53634,34.4956283 165.694306,36.3416882 164.010213,37.6874343 C162.32612,39.0331803 159.973632,39.7060433 156.952681,39.7060433 C154.348413,39.7060433 152.126137,39.2574679 150.285787,38.3603039 C148.445438,37.4631399 147.525277,36.4279661 147.525277,35.2547516 Z M171.889532,30.8552192 L171.889532,5.75200467 C171.889532,5.16539742 172.236763,4.67368989 172.931234,4.27686733 C173.625706,3.88004477 174.389613,3.68163647 175.222979,3.68163647 C176.125792,3.68163647 176.915741,3.88004477 177.592851,4.27686733 C178.269961,4.67368989 178.608511,5.16539742 178.608511,5.75200467 L178.608511,14.6545879 L184.754553,14.6545879 C185.275407,14.6545879 185.692084,14.8961285 186.004595,15.3792168 C186.317108,15.8623051 186.473361,16.4316507 186.473361,17.0872706 C186.473361,17.7428905 186.317108,18.3122361 186.004595,18.7953244 C185.692084,19.2784127 185.275407,19.5199533 184.754553,19.5199533 L178.608511,19.5199533 L178.608511,30.8552192 C178.608511,31.8559021 178.82553,32.5632709 179.259574,32.9773466 C179.693619,33.3914223 180.448845,33.5984571 181.525277,33.5984571 L183.556595,33.5984571 C184.459409,33.5984571 185.16255,33.8745034 185.666042,34.4266043 C186.169535,34.9787053 186.421277,35.6343153 186.421277,36.3934541 C186.421277,37.1870993 186.169535,37.8599622 185.666042,38.4120631 C185.16255,38.9641641 184.459409,39.2402104 183.556595,39.2402104 L181.525277,39.2402104 C175.101415,39.2402104 171.889532,36.4452413 171.889532,30.8552192 Z" id="shortlist." fill="#000000" fill-rule="nonzero"></path><path d="M191.450383,33.5351958 C191.450383,31.8175484 192.052249,30.3453013 193.256,29.1184103 C194.459751,27.8915193 195.9567,27.278083 197.746894,27.278083 C199.413625,27.278083 200.864277,27.8915193 202.098894,29.1184103 C203.33351,30.3453013 203.950809,31.8175484 203.950809,33.5351958 C203.950809,35.1914987 203.33351,36.6484099 202.098894,37.9059731 C200.864277,39.1635364 199.413625,39.7923086 197.746894,39.7923086 C195.9567,39.7923086 194.459751,39.1788723 193.256,37.9519813 C192.052249,36.7250903 191.450383,35.2528432 191.450383,33.5351958 Z" id="Path" fill="#28C3BB"></path></g></g></g></svg> 