<svg xmlns="http://www.w3.org/2000/svg" viewBox="0 0 1200 630" fill="none">
  <defs>
    <linearGradient id="bg" x1="0.5" y1="1" x2="0.5" y2="0">
      <stop offset="0%" stop-color="#F2F3F5"/>
      <stop offset="100%" stop-color="#FCFCFD"/>
    </linearGradient>
  </defs>
  <rect width="1200" height="630" fill="url(#bg)"/>
  <path d="M600,80 L900,350 L780,350 L600,180 L420,350 L300,350Z" fill="#2563EB" fill-opacity="0.35"/>
  <path d="M600,200 L850,430 L750,430 L600,300 L450,430 L350,430Z" fill="#2563EB" fill-opacity="0.20"/>
  <path d="M600,320 L800,510 L720,510 L600,410 L480,510 L400,510Z" fill="#82868C" fill-opacity="0.15"/>
  <circle cx="200" cy="500" r="80" fill="#2563EB" fill-opacity="0.10"/>
  <circle cx="1000" cy="150" r="60" fill="#82868C" fill-opacity="0.12"/>
  <rect x="550" y="530" width="100" height="8" rx="4" fill="#2563EB" fill-opacity="0.25"/>
  <g transform="translate(1125,578) scale(0.6)" opacity="0.18" fill="#17181A"><path d="M0,36.8 L4.54,36.8 L4.54,8.61 L0,8.61 L0,5.34 L17.81,5.34 C21.42,5.34 24.49,6.14 27.03,7.75 C29.57,9.35 31.47,11.46 32.74,14.07 C34,16.68 34.63,19.44 34.63,22.36 C34.63,25.82 34,28.88 32.74,31.55 C31.47,34.23 29.59,36.31 27.09,37.81 C24.59,39.31 21.51,40.06 17.87,40.06 L0,40.06 L0,36.8Z M17.29,36.8 C21.42,36.8 24.49,35.5 26.52,32.89 C28.54,30.29 29.55,26.87 29.55,22.64 C29.55,20.2 29.11,17.94 28.22,15.86 C27.34,13.79 25.99,12.11 24.17,10.83 C22.36,9.54 20.13,8.9 17.47,8.9 L9.25,8.9 L9.25,36.8 L17.29,36.8Z"/><polygon points="45.37 40.06 45.37 36.8 49.74 36.8 49.74 8.61 45.37 8.61 45.37 5.34 58.69 5.34 58.69 8.61 54.32 8.61 54.32 20.45 71.11 20.45 71.11 8.61 66.69 8.61 66.69 5.34 80 5.34 80 8.61 75.64 8.61 75.64 36.8 80 36.8 80 40.06 66.69 40.06 66.69 36.8 71.11 36.8 71.11 23.97 54.32 23.97 54.32 36.8 58.69 36.8 58.69 40.06"/><polygon points="38.7 0 40.7 0 40.7 45.7 38.7 45.7"/></g>
</svg>