<svg xmlns="http://www.w3.org/2000/svg" viewBox="0 0 1200 630" fill="none">
  <defs>
    <linearGradient id="bg" x1="0.5" y1="0" x2="0.5" y2="1">
      <stop offset="0%" stop-color="#FCFCFD"/>
      <stop offset="80%" stop-color="#F2F3F5"/>
    </linearGradient>
    <linearGradient id="peak" x1="0.5" y1="0" x2="0.5" y2="1">
      <stop offset="0%" stop-color="#2563EB" stop-opacity="0.35"/>
      <stop offset="100%" stop-color="#2563EB" stop-opacity="0.15"/>
    </linearGradient>
  </defs>
  <rect width="1200" height="630" fill="url(#bg)"/>
  <polygon points="350,100 600,630 100,630" fill="url(#peak)"/>
  <polygon points="700,200 950,630 450,630" fill="#82868C" fill-opacity="0.20"/>
  <polygon points="1000,160 1200,630 800,630" fill="#2563EB" fill-opacity="0.18"/>
  <polygon points="100,350 250,630 0,630" fill="#82868C" fill-opacity="0.12"/>
  <circle cx="350" cy="100" r="8" fill="#2563EB" fill-opacity="0.50"/>
  <circle cx="1000" cy="160" r="6" fill="#2563EB" fill-opacity="0.40"/>
  <path d="M0,580 Q300,550 600,570 T1200,555" stroke="#E3E5E8" stroke-width="1.5" fill="none"/>
  <g transform="translate(1125,578) scale(0.6)" opacity="0.18" fill="#17181A"><path d="M0,36.8 L4.54,36.8 L4.54,8.61 L0,8.61 L0,5.34 L17.81,5.34 C21.42,5.34 24.49,6.14 27.03,7.75 C29.57,9.35 31.47,11.46 32.74,14.07 C34,16.68 34.63,19.44 34.63,22.36 C34.63,25.82 34,28.88 32.74,31.55 C31.47,34.23 29.59,36.31 27.09,37.81 C24.59,39.31 21.51,40.06 17.87,40.06 L0,40.06 L0,36.8Z M17.29,36.8 C21.42,36.8 24.49,35.5 26.52,32.89 C28.54,30.29 29.55,26.87 29.55,22.64 C29.55,20.2 29.11,17.94 28.22,15.86 C27.34,13.79 25.99,12.11 24.17,10.83 C22.36,9.54 20.13,8.9 17.47,8.9 L9.25,8.9 L9.25,36.8 L17.29,36.8Z"/><polygon points="45.37 40.06 45.37 36.8 49.74 36.8 49.74 8.61 45.37 8.61 45.37 5.34 58.69 5.34 58.69 8.61 54.32 8.61 54.32 20.45 71.11 20.45 71.11 8.61 66.69 8.61 66.69 5.34 80 5.34 80 8.61 75.64 8.61 75.64 36.8 80 36.8 80 40.06 66.69 40.06 66.69 36.8 71.11 36.8 71.11 23.97 54.32 23.97 54.32 36.8 58.69 36.8 58.69 40.06"/><polygon points="38.7 0 40.7 0 40.7 45.7 38.7 45.7"/></g>
</svg>
