<svg xmlns="http://www.w3.org/2000/svg" viewBox="0 0 1200 630" fill="none">
  <defs>
    <linearGradient id="bg" x1="0" y1="0" x2="1" y2="1">
      <stop offset="0%" stop-color="#FAFAF8"/>
      <stop offset="100%" stop-color="#F2F0EB"/>
    </linearGradient>
  </defs>
  <rect width="1200" height="630" fill="url(#bg)"/>
  <rect x="80" y="80" width="300" height="180" rx="12" fill="#B91C1C" fill-opacity="0.22"/>
  <rect x="420" y="80" width="200" height="180" rx="12" fill="#6B6355" fill-opacity="0.18"/>
  <rect x="660" y="80" width="460" height="80" rx="12" fill="#B91C1C" fill-opacity="0.12"/>
  <rect x="660" y="200" width="220" height="160" rx="12" fill="#6B6355" fill-opacity="0.15"/>
  <rect x="920" y="200" width="200" height="160" rx="12" fill="#B91C1C" fill-opacity="0.28"/>
  <rect x="80" y="300" width="200" height="250" rx="12" fill="#6B6355" fill-opacity="0.20"/>
  <rect x="320" y="300" width="300" height="120" rx="12" fill="#B91C1C" fill-opacity="0.16"/>
  <rect x="320" y="460" width="140" height="90" rx="12" fill="#B91C1C" fill-opacity="0.10"/>
  <rect x="500" y="460" width="260" height="90" rx="12" fill="#6B6355" fill-opacity="0.12"/>
  <rect x="800" y="400" width="320" height="150" rx="12" fill="#B91C1C" fill-opacity="0.15"/>
  <g transform="translate(1125,578) scale(0.6)" opacity="0.18" fill="#1A1A1A"><path d="M0,36.8 L4.54,36.8 L4.54,8.61 L0,8.61 L0,5.34 L17.81,5.34 C21.42,5.34 24.49,6.14 27.03,7.75 C29.57,9.35 31.47,11.46 32.74,14.07 C34,16.68 34.63,19.44 34.63,22.36 C34.63,25.82 34,28.88 32.74,31.55 C31.47,34.23 29.59,36.31 27.09,37.81 C24.59,39.31 21.51,40.06 17.87,40.06 L0,40.06 L0,36.8Z M17.29,36.8 C21.42,36.8 24.49,35.5 26.52,32.89 C28.54,30.29 29.55,26.87 29.55,22.64 C29.55,20.2 29.11,17.94 28.22,15.86 C27.34,13.79 25.99,12.11 24.17,10.83 C22.36,9.54 20.13,8.9 17.47,8.9 L9.25,8.9 L9.25,36.8 L17.29,36.8Z"/><polygon points="45.37 40.06 45.37 36.8 49.74 36.8 49.74 8.61 45.37 8.61 45.37 5.34 58.69 5.34 58.69 8.61 54.32 8.61 54.32 20.45 71.11 20.45 71.11 8.61 66.69 8.61 66.69 5.34 80 5.34 80 8.61 75.64 8.61 75.64 36.8 80 36.8 80 40.06 66.69 40.06 66.69 36.8 71.11 36.8 71.11 23.97 54.32 23.97 54.32 36.8 58.69 36.8 58.69 40.06"/><polygon points="38.7 0 40.7 0 40.7 45.7 38.7 45.7"/></g>
</svg>
