<svg xmlns="http://www.w3.org/2000/svg" viewBox="0 0 1200 630" fill="none">
  <defs>
    <linearGradient id="bg" x1="0" y1="0" x2="1" y2="0.5">
      <stop offset="0%" stop-color="#F2F0EB"/>
      <stop offset="100%" stop-color="#FAFAF8"/>
    </linearGradient>
  </defs>
  <rect width="1200" height="630" fill="url(#bg)"/>
  <!-- Connection lines -->
  <line x1="200" y1="200" x2="500" y2="300" stroke="#B91C1C" stroke-opacity="0.20" stroke-width="2"/>
  <line x1="500" y1="300" x2="800" y2="180" stroke="#B91C1C" stroke-opacity="0.20" stroke-width="2"/>
  <line x1="500" y1="300" x2="600" y2="480" stroke="#6B6355" stroke-opacity="0.18" stroke-width="2"/>
  <line x1="800" y1="180" x2="1000" y2="350" stroke="#B91C1C" stroke-opacity="0.20" stroke-width="2"/>
  <line x1="600" y1="480" x2="1000" y2="350" stroke="#6B6355" stroke-opacity="0.18" stroke-width="2"/>
  <line x1="200" y1="200" x2="300" y2="450" stroke="#6B6355" stroke-opacity="0.15" stroke-width="1.5"/>
  <line x1="300" y1="450" x2="600" y2="480" stroke="#6B6355" stroke-opacity="0.15" stroke-width="1.5"/>
  <line x1="800" y1="180" x2="1050" y2="120" stroke="#B91C1C" stroke-opacity="0.15" stroke-width="1.5"/>
  <!-- Nodes -->
  <circle cx="200" cy="200" r="30" fill="#B91C1C" fill-opacity="0.30"/>
  <circle cx="500" cy="300" r="45" fill="#B91C1C" fill-opacity="0.35"/>
  <circle cx="800" cy="180" r="35" fill="#6B6355" fill-opacity="0.28"/>
  <circle cx="600" cy="480" r="28" fill="#6B6355" fill-opacity="0.25"/>
  <circle cx="1000" cy="350" r="38" fill="#B91C1C" fill-opacity="0.30"/>
  <circle cx="300" cy="450" r="20" fill="#B91C1C" fill-opacity="0.18"/>
  <circle cx="1050" cy="120" r="22" fill="#6B6355" fill-opacity="0.20"/>
  <circle cx="500" cy="300" r="12" fill="#B91C1C" fill-opacity="0.50"/>
  <g transform="translate(1125,578) scale(0.6)" opacity="0.18" fill="#1A1A1A"><path d="M0,36.8 L4.54,36.8 L4.54,8.61 L0,8.61 L0,5.34 L17.81,5.34 C21.42,5.34 24.49,6.14 27.03,7.75 C29.57,9.35 31.47,11.46 32.74,14.07 C34,16.68 34.63,19.44 34.63,22.36 C34.63,25.82 34,28.88 32.74,31.55 C31.47,34.23 29.59,36.31 27.09,37.81 C24.59,39.31 21.51,40.06 17.87,40.06 L0,40.06 L0,36.8Z M17.29,36.8 C21.42,36.8 24.49,35.5 26.52,32.89 C28.54,30.29 29.55,26.87 29.55,22.64 C29.55,20.2 29.11,17.94 28.22,15.86 C27.34,13.79 25.99,12.11 24.17,10.83 C22.36,9.54 20.13,8.9 17.47,8.9 L9.25,8.9 L9.25,36.8 L17.29,36.8Z"/><polygon points="45.37 40.06 45.37 36.8 49.74 36.8 49.74 8.61 45.37 8.61 45.37 5.34 58.69 5.34 58.69 8.61 54.32 8.61 54.32 20.45 71.11 20.45 71.11 8.61 66.69 8.61 66.69 5.34 80 5.34 80 8.61 75.64 8.61 75.64 36.8 80 36.8 80 40.06 66.69 40.06 66.69 36.8 71.11 36.8 71.11 23.97 54.32 23.97 54.32 36.8 58.69 36.8 58.69 40.06"/><polygon points="38.7 0 40.7 0 40.7 45.7 38.7 45.7"/></g>
</svg>
